<svg width="847" height="663" xmlns="http://www.w3.org/2000/svg"><g fill="none" fill-rule="evenodd"><path d="M37.104 0h311.742v340.668l-92.668-118.652v-69.743h-63.203l155.87 214.012-1.326 70.175c-16.841 11.358-29.124 22.773-36.85 34.245-7.724 11.472-13.46 26.814-17.204 46.025H37.104V176.89l92.289 119.247v70.148h63.582L37.104 152.273V0z" fill="#F80404"/><path d="M392.35.469h88.742v420c-14.796-6.145-29.587-9.6-44.371-10.364-14.785-.763-29.575 1.163-44.371 5.78V.469z" fill="#EF0707"/><path d="M517.014 0l243.203 237.113h74.36v273.11H684.692V255.11H666.39v261.62h-98.61c-2.289-16.298-7.948-31.227-16.98-44.79-9.03-13.562-20.292-24.045-33.785-31.449V0z" fill="#F40808"/><path d="M0 552.262h287.164c-.932 6.66-.932 12.65 0 17.967.932 5.317 3.033 11.306 6.3 17.966H0v-35.933z" fill="#131212"/><path d="M846.143 552.201v37.285H565.779c2.743-5.647 4.633-11.357 5.668-17.13.959-5.342.277-12.06-2.045-20.155h276.74z" fill="#0F0F0F"/><circle fill="#0D0D0D" cx="434.35" cy="548.469" r="114"/><ellipse fill="#FCF6F6" cx="434.85" cy="547.469" rx="61.5" ry="61"/><path stroke="#979797" fill="#FAF5F5" d="M569.727 125.48l78.968 77.266h-78.968z"/></g></svg>