<?xml version="1.0" encoding="UTF-8"?>
<svg width="847px" height="663px" viewBox="0 0 847 663" version="1.1" xmlns="http://www.w3.org/2000/svg" xmlns:xlink="http://www.w3.org/1999/xlink">
    <!-- Generator: Sketch 63.1 (92452) - https://sketch.com -->
    <title>Group</title>
    <desc>Created with Sketch.</desc>
    <g id="Page-1" stroke="none" stroke-width="1" fill="none" fill-rule="evenodd">
        <g id="Group">
            <path d="M37.1035156,0 L348.845703,0 L348.845703,340.667969 L256.177734,222.015625 L256.177734,152.273437 L192.974609,152.273437 L348.845703,366.285156 L347.518555,436.459961 C330.677806,447.818298 318.394928,459.233337 310.669922,470.705078 C302.944915,482.17682 297.209889,497.518617 293.464844,516.730469 L37.1035156,516.730469 L37.1035156,176.890625 L129.392578,296.136719 L129.392578,366.285156 L192.974609,366.285156 L37.1035156,152.273437 L37.1035156,0 Z" id="Path" fill="#F80404"></path>
            <path d="M392.349609,0.46875 L481.091797,0.46875 L481.091797,420.46875 C466.295624,414.323593 451.50526,410.869166 436.720703,410.105469 C421.936147,409.341771 407.145782,411.268204 392.349609,415.884766 L392.349609,0.46875 Z" id="Path-2" fill="#EF0707"></path>
            <path d="M517.013672,0 L760.216797,237.113281 L834.576172,237.113281 L834.576172,510.222656 L684.693359,510.222656 L684.693359,255.111328 L666.388672,255.111328 L666.388672,516.730469 L567.779297,516.730469 C565.490391,500.43321 559.830561,485.503523 550.799805,471.941406 C541.769049,458.37929 530.507004,447.896217 517.013672,440.492188 L517.013672,0 Z" id="Path-3" fill="#F40808"></path>
            <path d="M0,552.261719 L287.164062,552.261719 C286.231703,558.922302 286.231703,564.911235 287.164062,570.228516 C288.096422,575.545797 290.196682,581.534729 293.464844,588.195312 L0,588.195312 L0,552.261719 Z" id="Path-4" fill="#131212"></path>
            <path d="M846.142578,552.201172 L846.142578,589.486328 L565.779297,589.486328 C568.52219,583.839094 570.411512,578.128808 571.447266,572.355469 C572.405599,567.013672 571.723958,560.295573 569.402344,552.201172 L846.142578,552.201172 Z" id="Path-5" fill="#0F0F0F"></path>
            <circle id="Oval" fill="#0D0D0D" cx="434.349609" cy="548.46875" r="114"></circle>
            <ellipse id="Oval" fill="#FCF6F6" cx="434.849609" cy="547.46875" rx="61.5" ry="61"></ellipse>
            <polygon id="Path-6" stroke="#979797" fill="#FAF5F5" points="569.726562 125.480469 648.695312 202.746094 569.726562 202.746094"></polygon>
        </g>
    </g>
</svg>
